
        <svg xmlns="http://www.w3.org/2000/svg" xmlns:xlink="http://www.w3.org/1999/xlink" version="1.1" width="3171.4285714285716" 
        height="1851.425813634541" viewBox="0 0 3171.4285714285716 1851.425813634541">
			<rect fill="#041635" width="3171.4285714285716" height="1851.425813634541"/>
			<g transform="scale(8.571428571428571) translate(10, 10)">
				<defs id="SvgjsDefs17907"></defs><g id="SvgjsG17908" featureKey="pxMwYC-0" transform="matrix(2.3608381525128563,0,0,2.3608381525128563,55.70507177818171,-49.18571021077094)" fill="#5cbafa"><g xmlns="http://www.w3.org/2000/svg"><path fill="#5cbafa" d="M76.568,42.512c0.57-1.314,0.868-2.735,0.868-4.176c0-3.724-2.01-7.203-5.249-9.083   c-2.561-1.48-5.708-1.803-8.492-0.897c-3.438-4.679-8.961-7.522-14.8-7.522c-3.214,0-6.39,0.857-9.186,2.478   c-1.875,1.086-3.521,2.477-4.908,4.14c-2.075,0.127-4.107,0.74-5.923,1.792c-4.149,2.404-6.727,6.866-6.727,11.645   c0,4.778,2.578,9.238,6.727,11.64c0.788,0.457,1.639,0.833,2.54,1.125c0.921,2.873,2.549,5.484,4.753,7.609   c0.795,0.766,2.062,0.744,2.828-0.051c0.767-0.796,0.744-2.062-0.052-2.828c-1.952-1.882-3.326-4.247-3.974-6.841   c-0.182-0.727-0.755-1.292-1.485-1.462c-0.952-0.223-1.828-0.564-2.606-1.014c-2.918-1.689-4.731-4.823-4.731-8.178   c0-3.357,1.813-6.493,4.731-8.184c1.442-0.835,3.077-1.277,4.635-1.28c0.049,0.004,0.181,0.013,0.229,0.013   c0.679,0.036,1.251-0.288,1.636-0.803c1.181-1.581,2.638-2.88,4.332-3.862c2.188-1.268,4.67-1.938,7.18-1.938   c5.098,0,9.708,2.628,12.333,7.03c0.546,0.917,1.715,1.243,2.66,0.74c1.945-1.038,4.366-1.003,6.296,0.111   c2.007,1.164,3.253,3.318,3.253,5.621c0,1.171-0.318,2.321-0.92,3.327c-0.427,0.715-0.367,1.62,0.151,2.271   c1.344,1.69,2.054,3.717,2.054,5.862c0,3.357-1.813,6.493-4.733,8.183c-1.442,0.836-3.076,1.277-4.725,1.277   c-0.396,0-0.803-0.029-1.24-0.09c-1.09-0.15-2.104,0.613-2.255,1.708s0.614,2.104,1.708,2.255c0.621,0.085,1.206,0.127,1.787,0.127   c2.352,0,4.68-0.628,6.729-1.815c4.15-2.402,6.729-6.864,6.729-11.645C78.722,47.178,77.98,44.685,76.568,42.512z"></path><path fill="#5cbafa" d="M51.77,57.843c-0.093-0.093-0.196-0.177-0.307-0.251c-0.047-0.03-0.097-0.052-0.146-0.078   c-0.065-0.037-0.129-0.076-0.198-0.105c-0.064-0.025-0.13-0.041-0.196-0.061c-0.06-0.018-0.116-0.04-0.178-0.053   c-0.126-0.024-0.255-0.038-0.384-0.038c-0.002,0-0.004-0.001-0.007-0.001l0,0c-0.132,0-0.263,0.014-0.392,0.039   c-0.057,0.012-0.109,0.033-0.164,0.049c-0.07,0.021-0.142,0.037-0.21,0.065c-0.064,0.026-0.123,0.063-0.183,0.097   c-0.054,0.029-0.109,0.053-0.161,0.087c-0.11,0.073-0.213,0.157-0.306,0.25l-7.458,7.458c-0.781,0.781-0.781,2.047,0,2.828   c0.39,0.391,0.902,0.586,1.414,0.586s1.024-0.195,1.414-0.586l4.045-4.045V74.67c0,1.104,0.896,2,2,2s2-0.896,2-2V64.084   l4.127,4.127c0.391,0.391,0.902,0.586,1.414,0.586s1.023-0.195,1.414-0.586c0.781-0.781,0.781-2.047,0-2.828L51.77,57.843z"></path></g></g><g id="SvgjsG17909" featureKey="Vx5QiU-0" transform="matrix(2.8534160388090255,0,0,2.8534160388090255,-0.6277522904822709,138.1323990310308)" fill="#5cbafa"><path d="M11.04 14.76 q0 1.7 -0.71 2.94 t-1.99 1.91 t-2.98 0.67 q-1.76 0 -3.1 -0.84 t-2.04 -2.36 l2.88 -1.22 q0.32 0.68 0.87 1.15 t1.39 0.47 q1.46 0 1.98 -0.82 t0.52 -1.9 l0 -9.36 l3.18 0 l0 9.36 z M13.42 18.54 l1.56 -2.08 q0.72 0.5 1.68 0.84 t1.88 0.34 q0.68 0 1.13 -0.28 t0.45 -0.7 t-0.51 -0.59 t-0.99 -0.24 t-0.62 -0.09 q-1.2 -0.2 -2.07 -0.48 t-1.58 -1 t-0.71 -1.98 q0 -2.08 1.51 -2.78 t3.03 -0.7 q1.3 0 2.4 0.38 t2.18 1.2 l-1.56 2.04 q-0.78 -0.46 -1.54 -0.74 t-1.58 -0.28 q-0.5 0 -0.97 0.22 t-0.47 0.6 q0 0.48 0.65 0.68 t1.43 0.3 q1.4 0.24 2.24 0.5 t1.49 0.97 t0.65 2.01 q0 1.72 -1.18 2.65 t-3.34 0.93 q-3 0 -5.16 -1.72 z M34.730000000000004 10.02 q1.03 1.22 1.03 3.48 l0 6.5 l-3.04 0 l0 -6.5 q0 -1.18 -0.59 -1.7 t-1.55 -0.52 q-0.82 0 -1.48 0.65 t-0.62 2.25 l0 5.82 l-2.98 0 l0 -15.14 l2.98 0 l0 5.12 q0.54 -0.54 1.36 -0.86 t1.58 -0.32 q2.28 0 3.31 1.22 z M43.92 11.87 q-0.86 0.21 -1.58 0.99 t-0.72 2.28 l0 4.86 l-2.98 0 l0 -11 l2.98 0 l0 1.46 q0.74 -0.98 1.81 -1.33 t1.95 -0.33 l0 2.92 q-0.6 -0.06 -1.46 0.15 z M49.65 19.74 q-1.37 -0.54 -2.35 -1.83 t-0.98 -3.37 t0.99 -3.36 t2.37 -1.82 t2.62 -0.54 q1.44 0 2.74 0.64 t2.13 1.88 t0.87 2.94 q0 0.52 -0.02 0.9 t-0.04 0.48 l-8.68 0 q0.24 1.16 1.2 1.58 t1.8 0.42 q1.08 0 1.72 -0.39 t1.1 -0.89 l2.32 1.34 q-1.88 2.56 -5.14 2.56 q-1.28 0 -2.65 -0.54 z M50.26 12.05 q-0.78 0.61 -0.88 1.49 l5.5 0 q-0.06 -0.52 -0.4 -1 t-0.91 -0.79 t-1.29 -0.31 q-1.24 0 -2.02 0.61 z M63.269999999999996 19.74 q-1.37 -0.54 -2.35 -1.83 t-0.98 -3.37 t0.99 -3.36 t2.37 -1.82 t2.62 -0.54 q1.44 0 2.74 0.64 t2.13 1.88 t0.87 2.94 q0 0.52 -0.02 0.9 t-0.04 0.48 l-8.68 0 q0.24 1.16 1.2 1.58 t1.8 0.42 q1.08 0 1.72 -0.39 t1.1 -0.89 l2.32 1.34 q-1.88 2.56 -5.14 2.56 q-1.28 0 -2.65 -0.54 z M63.879999999999995 12.05 q-0.78 0.61 -0.88 1.49 l5.5 0 q-0.06 -0.52 -0.4 -1 t-0.91 -0.79 t-1.29 -0.31 q-1.24 0 -2.02 0.61 z M81.02000000000001 8.12 l0 11.88 l-3.18 0 l0 -11.88 l-4.26 0 l0 -2.74 l11.68 0 l0 2.74 l-4.24 0 z M88.78999999999999 19.74 q-1.37 -0.54 -2.35 -1.83 t-0.98 -3.37 t0.99 -3.36 t2.37 -1.82 t2.62 -0.54 q1.44 0 2.74 0.64 t2.13 1.88 t0.87 2.94 q0 0.52 -0.02 0.9 t-0.04 0.48 l-8.68 0 q0.24 1.16 1.2 1.58 t1.8 0.42 q1.08 0 1.72 -0.39 t1.1 -0.89 l2.32 1.34 q-1.88 2.56 -5.14 2.56 q-1.28 0 -2.65 -0.54 z M89.39999999999999 12.05 q-0.78 0.61 -0.88 1.49 l5.5 0 q-0.06 -0.52 -0.4 -1 t-0.91 -0.79 t-1.29 -0.31 q-1.24 0 -2.02 0.61 z M102.08 19.51 q-1.38 -0.77 -2.19 -2.09 t-0.81 -2.88 t0.81 -2.87 t2.18 -2.08 t2.99 -0.77 q1.74 0 3.15 0.83 t2.25 2.37 l-2.7 1.06 q-0.48 -0.82 -1.18 -1.23 t-1.52 -0.41 q-1.3 0 -2.15 0.88 t-0.85 2.22 t0.86 2.22 t2.16 0.88 q1.8 0 2.78 -1.6 l2.54 1 q-1.58 3.24 -5.32 3.24 q-1.62 0 -3 -0.77 z M121.85 10.02 q1.03 1.22 1.03 3.48 l0 6.5 l-3.04 0 l0 -6.5 q0 -1.18 -0.59 -1.7 t-1.55 -0.52 q-0.82 0 -1.48 0.65 t-0.62 2.25 l0 5.82 l-2.98 0 l0 -15.14 l2.98 0 l0 5.12 q0.54 -0.54 1.36 -0.86 t1.58 -0.32 q2.28 0 3.31 1.22 z"></path></g>
			</g>
		</svg>
	